<svg width="36" height="36" viewBox="0 0 36 36" fill="none" xmlns="http://www.w3.org/2000/svg">
<path d="M36 18C36 27.9411 27.9411 36 18 36C8.05887 36 0 27.9411 0 18C0 8.05887 8.05887 0 18 0C27.9411 0 36 8.05887 36 18ZM1.71493 18C1.71493 26.994 9.006 34.2851 18 34.2851C26.994 34.2851 34.2851 26.994 34.2851 18C34.2851 9.006 26.994 1.71493 18 1.71493C9.006 1.71493 1.71493 9.006 1.71493 18Z" fill="white"/>
<path d="M25.1104 13.3973V21.4338C25.1104 23.9844 24.4801 25.9783 23.2196 27.4155C21.959 28.8528 20.2019 29.5714 17.9484 29.5714C15.7553 29.5714 14.0414 28.8528 12.8067 27.4155C11.5806 25.9682 10.9676 23.954 10.9676 21.373V7.07141H12.3016V21.4338C12.3016 23.5694 12.8067 25.2344 13.8169 26.4287C14.8271 27.6129 16.2561 28.205 18.1038 28.205C19.9083 28.205 21.3071 27.623 22.3 26.4591C23.2929 25.285 23.7894 23.6605 23.7894 21.5856V13.3973H25.1104Z" fill="white"/>
<path fill-rule="evenodd" clip-rule="evenodd" d="M18.6819 7.11045L8.71762 17.0747L8.03577 16.3929L18.0001 6.4286L18.6819 7.11045Z" fill="white"/>
<path fill-rule="evenodd" clip-rule="evenodd" d="M18.039 6.46757L28.0033 16.4319L27.3214 17.1137L17.3571 7.14942L18.039 6.46757Z" fill="white"/>
<path fill-rule="evenodd" clip-rule="evenodd" d="M25.1104 14.4643H10.9676V13.5H25.1104V14.4643Z" fill="white"/>
<path d="M17.0748 22.1786H18.0391V23.1429H17.0748V22.1786Z" fill="white"/>
<path d="M18.3604 22.1786H19.3247V23.1429H18.3604V22.1786Z" fill="white"/>
<path d="M18.3604 23.4642H19.3247V26.0357H18.3604V23.4642Z" fill="white"/>
<path d="M17.0748 23.4642H18.0391V26.0357H17.0748V23.4642Z" fill="white"/>
<path d="M13.2176 16.7142H14.5033V17.9999H13.2176V16.7142Z" fill="white"/>
<path d="M14.8248 16.7142H16.1105V17.9999H14.8248V16.7142Z" fill="white"/>
<path d="M14.8248 18.3214H16.1105V19.6071H14.8248V18.3214Z" fill="white"/>
<path d="M13.2176 18.3214H14.5033V19.6071H13.2176V18.3214Z" fill="white"/>
</svg>
